<svg viewBox="0 0 256 221" xmlns="http://www.w3.org/2000/svg">
  <g fill="#61DAFB">
    <ellipse cx="128" cy="110.5" rx="16" ry="16"/>
    <path d="M128 0c18 0 34 27 45 68s11 83 0 110c-11 27-27 42-45 42s-34-15-45-42c-11-27-11-69 0-110S110 0 128 0zm0 16c-8.8 0-17 13.2-24 35.2-7 21.8-11 50-11 78s4 56.2 11 78c7 21.8 15.2 35.2 24 35.2s17-13.2 24-35.2c7-21.8 11-50 11-78s-4-56.2-11-78C145 29.2 136.8 16 128 16z"/>
    <path d="M43.5 34.8c15.6-9 41.4 1.2 69.5 27.2s45.6 59.5 50.4 83.7c4.8 24.2-1.8 40.6-17.4 49.6-15.6 9-41.4-1.2-69.5-27.2S60.9 108.8 56 84.6c-4.8-24.2 1.8-40.6 17.5-49.8zm6.2 13.8c-8.2 4.7-10.8 16-7 34.5s15.3 45.2 37.2 66.2c21.9 21 42.7 29.5 55.3 24.8s10.8-16 7-34.5-15.3-45.2-37.2-66.2C83.1 51.6 62.3 43.1 49.7 48.6z"/>
    <path d="M212.5 34.8c-15.6-9-41.4 1.2-69.5 27.2s-45.6 59.5-50.4 83.7c-4.8 24.2 1.8 40.6 17.4 49.6 15.6 9 41.4-1.2 69.5-27.2s45.6-59.5 50.4-83.7c4.8-24.2-1.8-40.6-17.4-49.6zm-6.2 13.8c8.2 4.7 10.8 16 7 34.5s-15.3 45.2-37.2 66.2c-21.9 21-42.7 29.5-55.3 24.8s-10.8-16-7-34.5 15.3-45.2 37.2-66.2c21.9-21 42.7-29.5 55.3-24.8z"/>
  </g>
</svg>
