<svg viewBox="0 0 512 512" xmlns="http://www.w3.org/2000/svg">
  <rect width="512" height="512" rx="15%" fill="#635BFF"/>
  <path fill="#fff" d="M371 224c0-42-34-60-86-60-23 0-50 4-70 10v208h55v-69c9 1 18 2 27 2 51 0 74-26 74-63zm-54 9c0 17-13 26-36 26-8 0-16-1-23-2v-49c7-2 15-3 25-3 21 0 34 9 34 28zM208 179c-19 0-31 9-38 16l-3-13c4-9 11-18 22-24 10-6 24-9 37-9 39 0 60 18 60 46s-21 45-58 45c-14 0-29-2-41-7v-16c10 3 23 4 32 4 17 0 28-7 28-19 0-11-6-18-20-18zm-14 47v12c4 3 9 4 14 4 10 0 17-4 17-11 0-7-7-12-19-12-7 0-13 1-18 3z"/>
</svg>
